PathFileType	4	(X/Y/Z)	TRAIL_071_Static_01_markers.trc
DataRate	CameraRate	NumFrames	NumMarkers	Units	OrigDataRate	OrigDataStartFrame	OrigNumFrames
200	200	4	48	mm	200	294	391
Frame#	Time	RSH			LSH			C7			LELB			LWR			RELB			RWR			RASI			LASI			SACR			P1			P2			LTHLP			LTHLD			LTHAP			LTHAD			LLEPI			LPAT			LMEPI			LTIAP			LTIAD			LTILAT			LLMAL			LMMAL			LHEEL			LMFS			LMFL			LP5MT			LP1MT			LTOE			RTHLP			RTHLD			RTHAP			RTHAD			RLEPI			RPAT			RMEPI			RTIAP			RTIAD			RTILAT			RLMAL			RMMAL			RHEEL			RMFS			RMFL			RP5MT			RP1MT			RTOE			
		X1	Y1	Z1	X2	Y2	Z2	X3	Y3	Z3	X4	Y4	Z4	X5	Y5	Z5	X6	Y6	Z6	X7	Y7	Z7	X8	Y8	Z8	X9	Y9	Z9	X10	Y10	Z10	X11	Y11	Z11	X12	Y12	Z12	X13	Y13	Z13	X14	Y14	Z14	X15	Y15	Z15	X16	Y16	Z16	X17	Y17	Z17	X18	Y18	Z18	X19	Y19	Z19	X20	Y20	Z20	X21	Y21	Z21	X22	Y22	Z22	X23	Y23	Z23	X24	Y24	Z24	X25	Y25	Z25	X26	Y26	Z26	X27	Y27	Z27	X28	Y28	Z28	X29	Y29	Z29	X30	Y30	Z30	X31	Y31	Z31	X32	Y32	Z32	X33	Y33	Z33	X34	Y34	Z34	X35	Y35	Z35	X36	Y36	Z36	X37	Y37	Z37	X38	Y38	Z38	X39	Y39	Z39	X40	Y40	Z40	X41	Y41	Z41	X42	Y42	Z42	X43	Y43	Z43	X44	Y44	Z44	X45	Y45	Z45	X46	Y46	Z46	X47	Y47	Z47	X48	Y48	Z48
294	        1.4650000334	      122.2535091438	     1520.7715034485	      -54.7708868980	     -148.1696722112	     1528.4627676010	      -43.9615249634	      -14.1171981595	     1517.4889564514	        3.2708048820	     -426.9325491987	     1400.3671407700	        3.5154819489	     -684.2306313119	     1380.4910182953	      -73.9296674728	      406.4776542582	     1400.9808301926	      -33.4199666977	      655.7864489951	     1426.9195795059	     -157.1883559227	      134.8165812888	     1000.0773668289	     -151.1095762253	     -131.2689987026	     1013.8890743256	     -178.8975000381	       -7.8122179038	     1016.4161920547	       16.9357061386	      -51.7482143841	     1018.4737443924	       14.8480534554	       32.9678225316	     1017.7551507950	       17.3954367638	     -199.6851322256	      726.4971733093	     -106.2252521515	     -189.9764594637	      615.7492399216	     -104.3336987495	     -121.1863738499	      710.7884287834	     -205.6939601898	     -123.1160295210	      609.5890998840	     -181.1167001724	     -183.8833001457	      520.4962491989	     -102.5598645210	     -137.8536430202	      505.6663155556	     -157.2344899178	      -75.1230401002	      487.5537753105	     -104.4209599495	     -154.8828688465	      351.3730168343	     -128.2816529274	     -167.9616478286	      247.1892386675	     -117.3060536385	     -220.2884164653	      309.1031014919	      -64.6356940269	     -210.9207418762	      109.7909435630	      -62.0945096016	     -131.4593610368	      106.5831854939	      -87.6957178116	     -171.3308599792	       60.5505071580	       -1.2598037720	     -173.2581612669	       87.9457071424	     -174.8259663582	     -261.3573727212	       42.6513850689	     -155.5133461952	     -262.4215838514	       38.4665764868	     -220.0350761414	     -157.7268895708	       45.2440194786	     -218.5172438622	     -186.4528414808	       53.0157983303	     -257.6660513878	      188.2457974352	      729.5453548431	      -85.3148102760	      179.0240797200	      633.2036852837	      -83.0578804016	      120.1692837276	      721.2988734245	     -192.3971772194	      116.5484058656	      628.3253431320	     -175.2429604530	      172.1301170983	      515.4266357422	      -84.4628810883	      128.5549196400	      495.9293901920	     -144.6610093117	       56.1448837616	      487.7329766750	      -95.8006978035	      150.9609761633	      360.2335453033	     -112.5662922859	      157.2853418984	      251.4666616917	      -96.9504714012	      206.0791048207	      326.0574936867	      -42.1457886696	      195.5326589741	      106.1178967357	      -25.4269242287	      119.5955741205	      118.0724799633	      -57.9727292061	      152.4921151795	       61.3210946321	       28.2025933266	      159.9795314469	       86.3382145762	     -147.8133201599	      243.7075617709	       39.2669253051	     -128.0721426010	      247.2697290577	       37.5036410987	     -184.5590472221	      143.1420090594	       41.4597317576	     -200.5114555359	      176.8018546500	       53.2871298492	     -244.5676922798
295	        1.4700000286	      122.2512888708	     1520.7705497742	      -54.8414587975	     -148.1574085556	     1528.4485816956	      -44.0276861191	      -14.0898321770	     1517.5161361694	        3.2098889351	     -426.9735869966	     1400.3673791885	        3.4183263779	     -684.2241344057	     1380.5066347122	      -74.1403102875	      406.5780582823	     1401.0227918625	      -33.4585905075	      655.7941975989	     1426.9697666168	     -157.2908163071	      134.8096671500	     1000.0638961792	     -151.1737704277	     -131.2570181690	     1013.8707160950	     -178.9324879646	       -7.7900645338	     1016.4312124252	       16.9339776039	      -51.7218467794	     1018.4665918350	       14.7936344147	       33.0053548314	     1017.7509784698	       17.3269510269	     -199.6510383688	      726.4357805252	     -106.1077117920	     -189.9422016941	      615.7299876213	     -104.3089628220	     -121.1869698964	      710.7987999916	     -205.6977152824	     -123.1123042307	      609.5731258392	     -181.0965538025	     -183.8848349653	      520.4987525940	     -102.5611162186	     -137.8461328350	      505.6792497635	     -157.2628617287	      -75.1085785232	      487.5470995903	     -104.4378280640	     -154.8336503110	      351.3957560062	     -128.1917095184	     -167.9625866018	      247.1813708544	     -117.3485517502	     -220.2870306573	      309.0911805630	      -64.6271705627	     -210.9216210447	      109.7789779305	      -62.0996952057	     -131.4610448680	      106.5798029304	      -87.7064466476	     -171.3395622573	       60.5557002127	       -1.2127757072	     -173.2510683141	       87.9498198628	     -174.8313307762	     -261.4449915491	       42.6068417728	     -155.4845571518	     -262.4154743753	       38.4524874389	     -220.0400829315	     -157.7100214563	       45.2409423888	     -218.5093164444	     -186.4536759458	       53.0001334846	     -257.6674222946	      188.2561537423	      729.5033335686	      -85.3301286697	      179.0261658825	      633.2053542137	      -83.0550193787	      120.1691049137	      721.2913036346	     -192.3935413361	      116.4981367983	      628.3118724823	     -175.2555966377	      172.1130552687	      515.3931379318	      -84.4771265984	      128.5245659747	      495.9293901920	     -144.6960568428	       56.1250801184	      487.7402186394	      -95.7644581795	      150.9300711550	      360.1895570755	     -112.5547885895	      157.3013904490	      251.4579296112	      -96.9185829163	      206.0788515009	      326.0414898396	      -42.1411395073	      195.5061945118	      106.1151176691	      -25.4145264626	      119.5069271125	      118.0663257837	      -57.9500794411	      152.0724835791	       61.4117681980	       28.1792879105	      159.9474343457	       86.3345712423	     -147.8418111801	      243.7291684546	       39.2686948180	     -128.1021833420	      247.2464236416	       37.4963246286	     -184.5328807831	      143.1019547381	       41.4792522788	     -200.4963159561	      176.7090800204	       53.2877296209	     -244.6272373199
296	        1.4750000238	      122.2498583593	     1520.7831859589	      -54.8867583275	     -148.1763181291	     1528.4428596497	      -44.0714955330	      -14.0915318407	     1517.5076723099	        3.1430125237	     -426.9775507055	     1400.3608226776	        3.3161044121	     -684.2246112428	     1380.4987668991	      -74.3137598038	      406.5729918875	     1401.0106325150	      -33.4637165070	      655.7794156470	     1426.9703626633	     -157.3691368103	      134.8234954276	     1000.0550746918	     -151.2082815170	     -131.2145200573	     1013.8593912125	     -178.9461374283	       -7.7589797802	     1016.4185762405	       16.9038772583	      -51.7048743568	     1018.4760093689	       14.7753953934	       33.0098214545	     1017.7543163300	       17.2551274300	     -199.6402350269	      726.4853119850	     -106.2006950378	     -189.9530348383	      615.7323718071	     -104.3342351913	     -121.1602223120	      710.8035087585	     -205.7509422302	     -123.1122297249	      609.5647811890	     -181.1014413834	     -183.8541981779	      520.5025076866	     -102.5859713554	     -137.8465947710	      505.6620240211	     -157.2450399399	      -75.1039442621	      487.5547587872	     -104.4526100159	     -154.8375544153	      351.4044284821	     -128.2680034637	     -167.9702756010	      247.1698522568	     -117.3110008240	     -220.2725467287	      309.0863227844	      -64.6476149559	     -210.9184619985	      109.8013073206	      -62.0854496956	     -131.4582434497	      106.5739244223	      -87.7066850662	     -171.3294145666	       60.5257749557	       -1.2404322624	     -173.2673105798	       87.9559367895	     -174.8261451721	     -261.3651809297	       42.5809435546	     -155.5054187775	     -262.4012288652	       38.4579971433	     -220.0092673302	     -157.7145067058	       45.2402979136	     -218.5066938400	     -186.4481774173	       52.9928281903	     -257.6525807381	      188.2761361994	      729.5354604721	      -85.3817462921	      179.0295633473	      633.2253813744	      -83.0917954445	      120.1636808910	      721.2876677513	     -192.4099922180	      116.5188643135	      628.3140182495	     -175.2433776855	      172.1124741234	      515.4026150703	      -84.4750404358	      128.5328659214	      495.9261119366	     -144.6702480316	       56.1145971515	      487.7283871174	      -95.7753658295	      150.9249600567	      360.2560460567	     -112.6344799995	      157.3032530941	      251.4877319336	      -96.9763994217	      206.0740384259	      326.0265588760	      -42.1289205551	      195.5093535580	      106.1161905527	      -25.4281759262	      119.5767688550	      118.0512532592	      -57.9660534859	      152.3049863972	       61.3406822085	       28.1972289085	      159.9510404267	       86.3448083401	     -147.8173136711	      243.7247577109	       39.2413735390	     -128.0730962753	      247.2555133500	       37.4872982502	     -184.5259666443	      143.0865469374	       41.4666198194	     -200.4790306091	      176.7202260889	       53.2826334238	     -244.6210384369
297	        1.4800000191	      122.2375052967	     1520.7703113556	      -54.9907684326	     -148.1642481886	     1528.4349918365	      -44.1591739655	      -14.1407764531	     1517.5049304962	        3.0916929245	     -426.9989487730	     1400.3597497940	        3.2017827034	     -684.2218098245	     1380.5242776871	      -74.5595693588	      406.4767899908	     1401.0280370712	      -33.6905717850	      655.7779851355	     1426.9759654999	     -157.4349999428	      134.8500343956	     1000.0485181808	     -151.2746214867	     -131.2221047483	     1013.8496160507	     -178.9932250977	       -7.7858260847	     1016.4319276810	       16.8261528015	      -51.6890754006	     1018.4853076935	       14.7446990013	       33.0382193424	     1017.7853107452	       17.1967744827	     -199.6819582782	      726.4439463615	     -106.2684059143	     -189.9536904893	      615.7315373421	     -104.3339967728	     -121.1601627074	      710.7827663422	     -205.7301998138	     -123.1018585167	      609.5680594444	     -181.1366081238	     -183.8549730383	      520.5208659172	     -102.6133894920	     -137.8359702430	      505.6592822075	     -157.2657227516	      -75.0822854243	      487.5417351723	     -104.4421792030	     -154.8595336280	      351.3855934143	     -128.2311081886	     -167.9749694667	      247.1820265055	     -117.3100471497	     -220.3090694748	      309.1075718403	      -64.6015405655	     -210.9309044681	      109.7970604897	      -62.1090531349	     -131.4468589626	      106.5725162625	      -87.7064466476	     -171.3126507602	       60.5458542705	       -1.2351870537	     -173.2695308528	       87.9367589951	     -174.8238801956	     -261.3337692819	       42.6275022328	     -155.4455757141	     -262.4147591196	       38.4509079158	     -220.0314402580	     -157.7213761411	       45.2231317759	     -218.5149192810	     -186.4466127954	       53.0031211674	     -257.6632499695	      188.2524582543	      729.5117974281	      -85.4061841965	      179.0292653241	      633.2152485847	      -83.0768346786	      120.1351004638	      721.2794423103	     -192.4317479134	      116.4982187547	      628.2969117165	     -175.3036379814	      172.1059474148	      515.3927803040	      -84.4846367836	      128.5421046414	      495.9245622158	     -144.7129249573	       56.1359467902	      487.7300560474	      -95.7965850830	      150.9003433384	      360.2403998375	     -112.6203536987	      157.3219838538	      251.4876425266	      -96.9216823578	      206.0769441523	      326.0410428047	      -42.1379804611	      195.4955848851	      106.1059832573	      -25.4268646240	      119.5128056206	      118.0192157626	      -57.9044222832	      152.3826661505	       61.3468475640	       28.2251238823	      159.9143239655	       86.3123983145	     -147.8099822998	      243.7019291319	       39.2513461411	     -128.0513405800	      247.2604009308	       37.5110171735	     -184.5433712006	      143.0649253525	       41.4970517159	     -200.4492878914	      176.7942252554	       53.2742068172	     -244.5331811905
